<svg width="215" height="311" viewBox="0 0 215 311" fill="none" xmlns="http://www.w3.org/2000/svg">
<path d="M110 131C133.869 131 156.761 140.482 173.64 157.36C190.518 174.239 200 197.131 200 221C200 244.869 190.518 267.761 173.64 284.64C156.761 301.518 133.869 311 110 311L110 221L110 131Z" fill="#949AF8"/>
<path d="M155 90C155 40.2944 195.294 0 245 0H335V90C335 139.706 294.706 180 245 180V180C195.294 180 155 139.706 155 90V90Z" fill="#98E491"/>
<g clip-path="url(#clip0_536_153)">
<path fill-rule="evenodd" clip-rule="evenodd" d="M70 20C70 8.9543 78.9543 0 90 0C101.046 0 110 8.95431 110 20V41.2792L125.137 26.1421C132.948 18.3316 145.611 18.3316 153.421 26.1421C161.232 33.9526 161.232 46.6159 153.421 54.4264L137.848 70H160C171.046 70 180 78.9543 180 90C180 101.046 171.046 110 160 110H138.284L153.421 125.137C161.232 132.948 161.232 145.611 153.421 153.421C145.611 161.232 132.948 161.232 125.137 153.421L110 138.284V160C110 171.046 101.046 180 90 180C78.9543 180 70 171.046 70 160V137.848L54.4264 153.421C46.6159 161.232 33.9526 161.232 26.1421 153.421C18.3316 145.611 18.3316 132.948 26.1421 125.137L41.2792 110H20C8.95431 110 0 101.046 0 90C0 78.9543 8.9543 70 20 70H41.7157L26.1421 54.4264C18.3316 46.616 18.3316 33.9527 26.1421 26.1422C33.9526 18.3317 46.6159 18.3317 54.4264 26.1422L70 41.7158V20Z" fill="white"/>
</g>
<defs>
<clipPath id="clip0_536_153">
<rect width="180" height="180" fill="white"/>
</clipPath>
</defs>
</svg>
