<svg width="61" height="54" viewBox="0 0 61 54" fill="none" xmlns="http://www.w3.org/2000/svg">
<rect x="1" y="0.999023" width="59" height="52" rx="9" stroke="#FF1292" stroke-width="2"/>
<g clip-path="url(#clip0_77_7545)">
<path d="M37.954 24.662C38.6096 23.6029 38.9702 22.3877 38.9982 21.1423C39.0263 19.897 38.7208 18.6668 38.1135 17.5792C37.5062 16.4916 36.6192 15.5861 35.5443 14.9566C34.4693 14.3272 33.2457 13.9965 32 13.999H25C24.4696 13.999 23.9609 14.2098 23.5858 14.5848C23.2107 14.9599 23 15.4686 23 15.999V35.999C23 36.5295 23.2107 37.0382 23.5858 37.4132C23.9609 37.7883 24.4696 37.999 25 37.999H35C36.5934 38.0007 38.1397 37.4583 39.3828 36.4614C40.6259 35.4646 41.4914 34.0732 41.8359 32.5175C42.1805 30.9618 41.9835 29.335 41.2776 27.9065C40.5717 26.478 39.3991 25.3333 37.954 24.662ZM27 17.999H32C32.7956 17.999 33.5587 18.3151 34.1213 18.8777C34.6839 19.4403 35 20.2034 35 20.999C35 21.7947 34.6839 22.5577 34.1213 23.1204C33.5587 23.683 32.7956 23.999 32 23.999H27V17.999ZM35 33.999H27V27.999H35C35.7956 27.999 36.5587 28.3151 37.1213 28.8777C37.6839 29.4403 38 30.2034 38 30.999C38 31.7947 37.6839 32.5577 37.1213 33.1204C36.5587 33.683 35.7956 33.999 35 33.999Z" fill="#FF1292"/>
</g>
<defs>
<clipPath id="clip0_77_7545">
<rect width="24" height="24" fill="white" transform="translate(20 13.999)"/>
</clipPath>
</defs>
</svg>
