<svg width="37" height="37" viewBox="0 0 37 37" fill="none" xmlns="http://www.w3.org/2000/svg">
<path d="M16.3125 30.5303H1" stroke="black" stroke-width="2" stroke-linecap="round" stroke-linejoin="round"/>
<path fill-rule="evenodd" clip-rule="evenodd" d="M36 30.5303C36 33.5506 33.5516 35.999 30.5312 35.999C27.5109 35.999 25.0625 33.5506 25.0625 30.5303C25.0625 27.5077 27.5109 25.0615 30.5312 25.0615C33.5516 25.0615 36 27.5077 36 30.5303Z" stroke="#FF1292" stroke-width="2" stroke-linecap="round" stroke-linejoin="round"/>
<path d="M20.6875 6.46777H36" stroke="black" stroke-width="2" stroke-linecap="round" stroke-linejoin="round"/>
<path fill-rule="evenodd" clip-rule="evenodd" d="M1 6.46777C1 9.49033 3.44843 11.9365 6.46875 11.9365C9.48907 11.9365 11.9375 9.49033 11.9375 6.46777C11.9375 3.44745 9.48907 0.999023 6.46875 0.999023C3.44843 0.999023 1 3.44745 1 6.46777Z" stroke="#FF1292" stroke-width="2" stroke-linecap="round" stroke-linejoin="round"/>
</svg>
