<svg width="52" height="52" viewBox="0 0 52 52" fill="none" xmlns="http://www.w3.org/2000/svg">
<path fill-rule="evenodd" clip-rule="evenodd" d="M37.7135 0.999023H14.2838C6.11892 0.999023 1 6.78011 1 14.9612V37.0369C1 45.2179 6.09189 50.999 14.2838 50.999H37.7108C45.9027 50.999 51 45.2179 51 37.0369V14.9612C51 6.78011 45.9027 0.999023 37.7135 0.999023Z" stroke="#FF1292" stroke-width="2" stroke-linecap="round" stroke-linejoin="round"/>
<path d="M13.8921 29.2342C12.1057 29.2342 10.6543 27.7828 10.6543 25.9991C10.6543 24.2153 12.1057 22.7612 13.8921 22.7612C15.6786 22.7612 17.13 24.2153 17.13 25.9991C17.13 27.7828 15.6786 29.2342 13.8921 29.2342Z" fill="black"/>
<path d="M25.9986 29.2342C24.2122 29.2342 22.7608 27.7828 22.7608 25.9991C22.7608 24.2153 24.2122 22.7612 25.9986 22.7612C27.7851 22.7612 29.2365 24.2153 29.2365 25.9991C29.2365 27.7828 27.7851 29.2342 25.9986 29.2342Z" fill="black"/>
<path d="M38.1041 29.2342C36.3176 29.2342 34.8662 27.7828 34.8662 25.9991C34.8662 24.2153 36.3176 22.7612 38.1041 22.7612C39.8906 22.7612 41.3419 24.2153 41.3419 25.9991C41.3419 27.7828 39.8906 29.2342 38.1041 29.2342Z" fill="black"/>
</svg>
