<svg width="61" height="54" viewBox="0 0 61 54" fill="none" xmlns="http://www.w3.org/2000/svg">
<rect x="1" y="0.999023" width="59" height="52" rx="9" stroke="#FF2F9F" stroke-width="2"/>
<path d="M10.644 18.99L16.279 36.999H18.349L23.179 21.543L27.986 36.999H30.102L35.76 18.99H33.851L29.113 34.354H29.067L24.283 18.99H22.144L17.383 34.262H17.337L12.622 18.99H10.644ZM49.8006 32.031C49.8006 29.938 48.5356 28.374 46.5116 27.73V27.707C48.4206 26.833 49.3866 25.453 49.3866 23.567C49.3866 22.302 48.8806 21.175 47.8456 20.232C46.8106 19.266 45.4076 18.783 43.5906 18.783C40.6696 18.783 38.5306 20.439 37.7026 22.923L39.4046 23.682C40.2556 21.589 41.6356 20.554 43.5446 20.554C44.7636 20.554 45.7296 20.876 46.4196 21.497C47.1096 22.118 47.4546 22.877 47.4546 23.728C47.4546 24.625 47.0866 25.407 46.3736 26.028C45.6606 26.649 44.7176 26.971 43.5216 26.971H41.7736V28.719H43.5676C46.3506 28.719 47.8686 30.122 47.8686 32.054C47.8686 32.951 47.5006 33.756 46.7416 34.423C45.9826 35.09 44.9476 35.412 43.5906 35.412C41.4976 35.412 40.0256 34.354 39.1746 32.215L37.5186 33.043C38.4386 35.619 40.5776 37.183 43.5906 37.183C45.4076 37.183 46.9026 36.7 48.0526 35.711C49.2256 34.722 49.8006 33.48 49.8006 32.031Z" fill="black"/>
</svg>
