<svg width="135" height="48" viewBox="0 0 135 48" fill="none" xmlns="http://www.w3.org/2000/svg">
<path d="M10.8347 7.85724C8.241 8.94291 5.38972 12.01 4.4892 15.86C3.34875 20.738 8.09469 22.8007 8.48395 22.1244C8.94211 21.3296 7.63353 21.0609 7.36417 18.53C7.01605 15.2611 8.53576 11.6084 10.4484 10.0057C10.8039 9.70798 10.787 10.1224 10.787 10.889C10.787 12.2598 10.7112 24.5657 10.7112 27.134C10.7112 30.6091 10.5677 31.7065 10.3099 32.7909C10.0487 33.8898 9.62878 34.6323 9.94697 34.9183C10.3025 35.2383 11.8203 34.4772 12.6991 33.2508C13.7528 31.7799 14.1216 30.0135 14.1879 28.0951C14.2678 25.7826 14.2644 22.1131 14.2678 20.0201C14.271 18.1005 14.3002 12.4794 14.2342 9.10016C14.218 8.27131 11.9193 7.40172 10.8345 7.85624M102.935 24.1208C102.851 25.9274 102.451 27.3396 101.955 28.3356C100.994 30.264 99.0003 30.8627 98.1537 28.0907C97.6924 26.5797 97.6708 24.0561 98.0025 21.9475C98.3401 19.7994 99.2829 18.1771 100.844 18.3234C102.384 18.468 103.104 20.4521 102.935 24.1207V24.1208ZM76.9772 35.3297C76.9563 38.3316 76.4839 40.9636 75.4707 41.7281C74.0338 42.812 72.1024 41.9989 72.5023 39.8084C72.8562 37.87 74.5297 35.8905 76.9813 33.4717C76.9813 33.4717 76.9864 34.0233 76.9773 35.3297H76.9772ZM76.5848 24.1033C76.4969 25.7488 76.0703 27.4019 75.6049 28.3359C74.6442 30.2642 72.6359 30.867 71.8036 28.0909C71.2345 26.1942 71.3708 23.7393 71.6524 22.1925C72.0177 20.1857 72.9033 18.3238 74.4938 18.3238C76.0402 18.3238 76.8027 20.0204 76.5848 24.1034V24.1033ZM61.5474 24.0781C61.4532 25.8209 61.1132 27.2777 60.5676 28.3359C59.5805 30.2509 57.6276 30.8583 56.7663 28.0909C56.1454 26.0955 56.3568 23.3746 56.615 21.9048C56.9983 19.7237 57.9582 18.1773 59.4565 18.3238C60.9957 18.4742 61.7439 20.4523 61.5474 24.0783V24.0781ZM130.46 26.1137C130.084 26.1137 129.912 26.5016 129.77 27.1544C129.277 29.4242 128.759 29.9368 128.092 29.9368C127.346 29.9368 126.675 28.8128 126.503 26.5629C126.367 24.7938 126.389 21.5367 126.562 18.2968C126.598 17.6311 126.414 16.9724 124.629 16.3238C123.86 16.0448 122.744 15.634 122.187 16.9763C120.616 20.7684 120.002 23.779 119.857 25.002C119.85 25.0653 119.772 25.0783 119.758 24.9304C119.666 23.9508 119.46 22.1708 119.435 18.4309C119.43 17.7013 119.275 17.0802 118.47 16.5717C117.947 16.2417 116.36 15.6581 115.789 16.3524C115.294 16.9202 114.72 18.4482 114.125 20.2595C113.64 21.7316 113.303 22.7275 113.303 22.7275C113.303 22.7275 113.31 18.7554 113.315 17.2486C113.318 16.6802 112.928 16.4908 112.811 16.4565C112.281 16.3029 111.239 16.0463 110.796 16.0463C110.25 16.0463 110.116 16.3515 110.116 16.7963C110.116 16.8545 110.03 22.026 110.03 25.6421C110.03 25.7992 110.03 25.9706 110.032 26.1526C109.73 27.8146 108.75 30.0708 107.685 30.0708C106.619 30.0708 106.116 29.1276 106.116 24.8166C106.116 22.3016 106.191 21.2081 106.228 19.3891C106.25 18.3414 106.291 17.5369 106.289 17.3543C106.281 16.7944 105.313 16.5122 104.863 16.4079C104.41 16.3028 104.017 16.262 103.709 16.2795C103.275 16.3041 102.967 16.5892 102.967 16.9815C102.967 17.1918 102.97 17.5917 102.97 17.5917C102.41 16.7119 101.509 16.0995 100.91 15.9221C99.2963 15.4428 97.6123 15.8675 96.3422 17.6448C95.3327 19.057 94.7242 20.6565 94.4846 22.9545C94.3095 24.6345 94.3667 26.3382 94.6779 27.779C94.3018 29.4047 93.6037 30.0708 92.8393 30.0708C91.7295 30.0708 90.925 28.2594 91.0184 25.1267C91.08 23.0662 91.4924 21.6202 91.943 19.5282C92.1352 18.6364 91.9791 18.1695 91.5875 17.722C91.2283 17.3117 90.463 17.102 89.3628 17.3599C88.5792 17.5437 87.4588 17.7414 86.4337 17.8933C86.4337 17.8933 86.4956 17.6465 86.5463 17.2114C86.8129 14.9296 84.3334 15.1147 83.5423 15.8436C83.0701 16.2787 82.7487 16.7919 82.6267 17.7146C82.4332 19.1788 83.6274 19.8695 83.6274 19.8695C83.2356 21.663 82.2751 24.006 81.2835 25.7C80.7525 26.6076 80.3461 27.2801 79.8216 27.995C79.8197 27.7288 79.8183 27.4627 79.8173 27.1977C79.8053 23.4269 79.8555 20.4591 79.8777 19.3895C79.8992 18.3418 79.9412 17.5586 79.9389 17.376C79.933 16.9665 79.6938 16.8118 79.1964 16.616C78.7566 16.4429 78.2366 16.323 77.6972 16.2812C77.0164 16.2281 76.6062 16.5892 76.6169 17.0162C76.6189 17.0968 76.6189 17.5919 76.6189 17.5919C76.059 16.712 75.1585 16.0997 74.5594 15.9222C72.9456 15.4431 71.2617 15.8678 69.9915 17.645C68.9822 19.0572 68.3212 21.0389 68.1339 22.9372C67.9595 24.7064 67.9917 26.2099 68.2295 27.4765C67.9729 28.7447 67.2351 30.071 66.401 30.071C65.3345 30.071 64.7277 29.1277 64.7277 24.8167C64.7277 22.3018 64.8032 21.2082 64.8403 19.3895C64.8618 18.3418 64.9034 17.537 64.9011 17.3547C64.8932 16.7948 63.925 16.5126 63.4746 16.4081C63.0032 16.2991 62.5962 16.259 62.2838 16.282C61.8715 16.3127 61.5816 16.682 61.5816 16.9573V17.5919C61.0217 16.712 60.1212 16.0997 59.5221 15.9222C57.9083 15.4431 56.2337 15.8747 54.9542 17.645C54.1198 18.7993 53.4443 20.0791 53.0966 22.912C52.9962 23.7307 52.9518 24.4973 52.9576 25.2139C52.6248 27.2487 51.1552 29.594 49.9531 29.594C49.2497 29.594 48.5797 28.2296 48.5797 25.3218C48.5797 21.4484 48.8195 15.9335 48.86 15.402C48.86 15.402 50.3789 15.3762 50.673 15.3728C51.4306 15.3644 52.1168 15.3824 53.1258 15.3307C53.632 15.3049 54.1196 13.4885 53.5972 13.2637C53.3605 13.162 51.6872 13.0728 51.0239 13.0588C50.4661 13.0461 48.9133 12.9312 48.9133 12.9312C48.9133 12.9312 49.0526 9.27068 49.085 8.884C49.1126 8.56171 48.6956 8.39577 48.4565 8.29508C47.875 8.04916 47.3548 7.93142 46.7382 7.8043C45.8863 7.62856 45.4998 7.80046 45.4243 8.51947C45.3106 9.61068 45.2517 12.8069 45.2517 12.8069C44.6266 12.8069 42.4911 12.6847 41.8657 12.6847C41.2847 12.6847 40.6576 15.1834 41.4609 15.2141C42.3851 15.2499 43.9957 15.2808 45.0634 15.3131C45.0634 15.3131 45.0158 20.9188 45.0158 22.6494C45.0158 22.8336 45.0175 23.0109 45.0178 23.1829C44.4301 26.2458 42.3604 27.9003 42.3604 27.9003C42.8049 25.874 41.8969 24.3524 40.2614 23.0643C39.6588 22.5897 38.4693 21.6911 37.1383 20.7064C37.1383 20.7064 37.9092 19.9466 38.5928 18.4182C39.0771 17.3355 39.0981 16.0965 37.9092 15.8233C35.9447 15.3715 34.325 16.8142 33.8419 18.3544C33.4676 19.5476 33.6672 20.433 34.4005 21.3527C34.454 21.4199 34.5121 21.4885 34.572 21.5576C34.1286 22.4123 33.5194 23.5631 33.0034 24.4554C31.5714 26.933 30.4896 28.8928 29.672 28.8928C29.0185 28.8928 29.0272 26.9031 29.0272 25.0403C29.0272 23.4343 29.1458 21.0199 29.2405 18.5202C29.2719 17.6934 28.8585 17.2225 28.1655 16.7959C27.7445 16.5367 26.8459 16.0272 26.3255 16.0272C25.5465 16.0272 23.2991 16.1332 21.1755 22.2758C20.9079 23.05 20.3822 24.4608 20.3822 24.4608L20.4274 17.074C20.4274 16.9008 20.3352 16.7334 20.124 16.6189C19.7661 16.4246 18.8104 16.0272 17.9606 16.0272C17.5556 16.0272 17.3536 16.2155 17.3536 16.5909L17.2795 28.1475C17.2795 29.0256 17.3023 30.05 17.3892 30.498C17.4757 30.9466 17.6158 31.3115 17.7893 31.5286C17.9626 31.7454 18.1631 31.9107 18.4936 31.9789C18.8012 32.0422 20.4857 32.2585 20.5732 31.6148C20.6781 30.8434 20.6821 30.009 21.5666 26.897C22.9436 22.0521 24.7389 19.6881 25.5829 18.8486C25.7305 18.7019 25.899 18.6931 25.8909 18.9333C25.8548 19.9955 25.7281 22.6497 25.6428 24.9046C25.4142 30.9391 26.512 32.0576 28.0808 32.0576C29.281 32.0576 30.9728 30.8651 32.7864 27.8464C33.9171 25.9651 35.0149 24.1206 35.8036 22.7911C36.3533 23.2999 36.9701 23.8476 37.5866 24.4326C39.019 25.7922 39.4893 27.0841 39.1773 28.3096C38.9386 29.2466 38.0398 30.2121 36.4401 29.2736C35.9739 28.9998 35.7748 28.7883 35.306 28.4796C35.0541 28.3138 34.6696 28.2642 34.439 28.4379C33.8401 28.8895 33.4975 29.4639 33.3019 30.175C33.1117 30.867 33.8047 31.2328 34.523 31.5527C35.1416 31.8281 36.471 32.0776 37.3189 32.106C40.6223 32.2165 43.2687 30.511 45.1109 26.1116C45.4406 29.911 46.8441 32.061 49.2824 32.061C50.9126 32.061 52.5471 29.9538 53.2618 27.8809C53.467 28.7259 53.7707 29.4607 54.163 30.0821C56.0419 33.059 59.6868 32.4183 61.5177 29.8904C62.0838 29.1093 62.17 28.8286 62.17 28.8286C62.437 31.2155 64.3592 32.0495 65.4598 32.0495C66.6924 32.0495 67.9651 31.4668 68.8571 29.4586C68.9616 29.6766 69.0757 29.8847 69.2003 30.082C71.0792 33.0589 74.7241 32.4182 76.555 29.8903C76.6414 29.7717 76.7163 29.6642 76.7818 29.5676L76.8355 31.1355C76.8355 31.1355 75.791 32.0936 75.1499 32.6814C72.328 35.2704 70.1823 37.2346 70.0245 39.5219C69.8218 42.4385 72.1873 43.5224 73.9768 43.6645C75.8772 43.8153 77.5046 42.7655 78.505 41.2963C79.3848 40.0031 79.9607 37.2198 79.9185 34.4709C79.9016 33.3702 79.8739 31.9705 79.8521 30.4702C80.8439 29.3184 81.9614 27.8627 82.9903 26.1587C84.1116 24.3018 85.3133 21.808 85.9286 19.8672C85.9286 19.8672 86.9727 19.8762 88.0869 19.8033C88.4433 19.78 88.5457 19.8527 88.4798 20.114C88.4002 20.4297 87.0721 25.5526 88.2842 28.9652C89.1139 31.3014 90.9843 32.0531 92.0932 32.0531C93.3913 32.0531 94.6331 31.0727 95.2985 29.6171C95.3787 29.7793 95.4625 29.9364 95.5541 30.0814C97.4329 33.0583 101.065 32.4137 102.909 29.8897C103.325 29.3202 103.561 28.8279 103.561 28.8279C103.957 31.2982 105.878 32.0614 106.978 32.0614C108.124 32.0614 109.212 31.5915 110.095 29.5031C110.132 30.4226 110.19 31.1745 110.281 31.4115C110.337 31.5565 110.663 31.7385 110.9 31.8264C111.949 32.2152 113.018 32.0313 113.414 31.9513C113.688 31.8959 113.901 31.676 113.931 31.1082C114.007 29.6173 113.96 27.1123 114.412 25.2507C115.171 22.1264 115.879 20.9145 116.214 20.3145C116.402 19.9784 116.614 19.9229 116.622 20.2787C116.638 20.9985 116.674 23.1125 116.968 25.9527C117.183 28.0415 117.472 29.2762 117.693 29.667C118.326 30.7844 119.107 30.8373 119.743 30.8373C120.148 30.8373 120.994 30.7255 120.918 30.0144C120.881 29.6678 120.946 27.5257 121.694 24.4477C122.182 22.4376 122.996 20.6214 123.29 19.9574C123.399 19.7126 123.449 19.9056 123.447 19.9432C123.385 21.3275 123.246 25.8553 123.81 28.3316C124.575 31.6862 126.786 32.0616 127.557 32.0616C129.202 32.0616 130.547 30.8102 131.001 27.5174C131.11 26.725 130.948 26.1131 130.464 26.1131" fill="#EFECE6"/>
</svg>
