<svg width="81" height="56" viewBox="0 0 81 56" fill="none" xmlns="http://www.w3.org/2000/svg">
<path d="M39.3495 1.89258C27.8219 1.89258 19.3329 9.21061 19.3329 17.0472C19.3329 21.0954 21.6076 24.4917 24.4759 26.8514L24.6901 26.7008C22.4214 24.8174 20.3736 21.8735 20.3736 17.8469C20.9732 9.2743 31.5258 4.44568 40.9188 4.44568C47.5605 4.44568 59.4932 5.98526 59.4932 17.0907C59.4932 22.8924 53.3016 30.425 40.2998 30.425C33.643 30.425 28.4746 26.8523 28.4746 21.7217C28.4746 17.2839 31.9449 14.1461 37.121 14.1461C38.5541 14.1461 39.8925 14.4703 40.9121 14.7518C38.7495 14.3621 35.3929 14.9238 33.6611 16.2876V23.7796H40.0221V15.2503C41.3989 15.5101 42.4373 16.0488 43.0737 16.4817V23.7796H44.459C43.158 25.2517 40.7244 26.1388 38.6267 25.8141V26.1152C44.6752 26.5915 47.233 23.7126 47.233 20.487C47.233 16.6986 43.6697 14.4702 40.0221 14.0156V8.40749H33.6611V14.0792C29.5436 14.9018 25.5132 17.3508 25.5132 21.4206C25.5132 27.6552 34.2303 31.5058 41.8223 31.5058C53.352 31.5058 62.2236 25.9445 62.2236 18.1079C62.2236 8.64772 49.4137 1.89258 39.3495 1.89258Z" fill="#EFECE6"/>
<path d="M42.796 8.40749V14.6882C46.2337 15.7489 48.113 17.957 48.113 20.7279C48.113 21.6805 47.8696 22.7838 47.166 23.7796H49.157V8.40749H42.796Z" fill="#EFECE6"/>
<path d="M12.4908 53.8043V52.9167H14.7205V45.3615H8.76517V52.9167H11.0512V53.8043H2.84009V52.9167H4.92915V37.5249H2.84009V36.6374H11.0512V37.5249H8.76517V44.3441H14.7205V37.5249H12.4908V36.6374H20.6175V37.5249H18.5306V52.9167H20.6175V53.8043H12.4908Z" fill="#EFECE6"/>
<path d="M23.7676 38.6723H27.4932V36.6374H23.7676V38.6723Z" fill="#EFECE6"/>
<path d="M21.934 52.9167V53.8043H29.4978V52.9167H27.634V41.4865H21.934V42.3741H23.9386V52.9167H21.934Z" fill="#EFECE6"/>
<path d="M30.3012 53.8044V52.9168H32.3599V35.252H30.3012V34.3861H36.0855V52.9168H38.0339V53.8044H30.3012Z" fill="#EFECE6"/>
<path d="M40.7003 51.1416C40.7003 52.7435 41.8 53.8043 43.8328 53.8043H47.106V52.9167H44.1705V42.3741H47.0497V41.4865H44.1705V36.6157C43.3967 36.6302 42.6093 36.6253 41.835 36.6205C41.4526 36.6181 41.0731 36.6157 40.7003 36.6157V41.4865H38.6957V42.3741H40.7003V51.1416Z" fill="#EFECE6"/>
<path fill-rule="evenodd" clip-rule="evenodd" d="M61.0711 50.1023C60.649 51.2496 58.8976 54.1072 54.6373 54.1072C49.8964 54.1072 47.4696 50.86 47.4696 47.5695C47.4696 42.9801 51.533 41.0967 54.5529 41.0967C57.2329 41.0967 61.1273 42.7203 61.4391 47.3746C61.4954 48.2622 61.4088 49.258 61.0711 50.1023ZM57.0359 43.478C56.5575 42.3956 55.6807 41.9193 54.5247 41.9193C51.6174 41.9193 51.5611 44.9067 51.5611 47.5045C51.5611 51.0115 51.8728 51.6176 52.098 52.0506C52.4638 52.7433 53.254 53.3928 54.5529 53.3928C57.4581 53.3928 57.4581 50.2755 57.4299 47.3963C57.4045 44.3251 57.2133 43.8857 57.0469 43.5032L57.0359 43.478Z" fill="#EFECE6"/>
<path d="M71.3817 52.9165V53.8041H78.7203V52.9165H76.772V45.1016C76.772 43.8027 76.6595 42.0059 74.289 41.2915C73.4988 41.075 72.8213 41.075 72.5962 41.075C72.0311 41.075 71.241 41.1616 70.3664 41.5296C69.1519 42.0059 68.6453 42.5687 68.024 43.3697V41.4863H62.3241V42.3739H64.3266V52.9165H62.3241V53.8041H69.8858V52.9165H68.024V47.5045C68.024 47.2962 68.0234 47.1072 68.0227 46.9346C68.0194 45.9949 68.0177 45.5405 68.1366 45.1016C68.5328 43.4347 70.1975 42.4172 71.2128 42.4172C73.0182 42.4172 73.0182 44.0408 73.0182 45.6644V52.9165H71.3817Z" fill="#EFECE6"/>
</svg>
