<svg width="75" height="48" viewBox="0 0 75 48" fill="none" xmlns="http://www.w3.org/2000/svg">
<g clip-path="url(#clip0_89_188)">
<path d="M37.8784 0.331787C17.6661 0.331787 1.27783 10.9279 1.27783 23.9952C1.27783 37.0674 17.6661 47.6683 37.8784 47.6683C58.0907 47.6683 74.479 37.0722 74.479 23.9952C74.479 10.9183 58.0907 0.331787 37.8784 0.331787ZM37.8784 37.5097C34.872 37.5097 32.4189 31.5914 32.2649 24.1443C34.0736 24.3029 35.9543 24.3895 37.8784 24.3895C39.8025 24.3895 41.6832 24.3029 43.4919 24.1443C43.3379 31.5866 40.8848 37.5097 37.8784 37.5097ZM32.6353 18.2308C33.453 12.9664 35.4926 9.23083 37.8784 9.23083C40.2642 9.23083 42.3038 12.9664 43.1215 18.2308C41.4427 18.3799 39.6918 18.4616 37.8784 18.4616C36.065 18.4616 34.3141 18.3799 32.6353 18.2308ZM37.8784 3.75486C33.9533 3.75486 30.6054 9.62986 29.3692 17.8318C21.9279 16.6731 16.7329 14.0289 16.7329 10.9568C16.7329 6.81256 26.1993 3.45198 37.8784 3.45198C49.5575 3.45198 59.0239 6.81256 59.0239 10.9568C59.0239 14.0289 53.8289 16.6731 46.3876 17.8318C45.1514 9.62986 41.8035 3.75486 37.8784 3.75486ZM6.52572 23.1106C6.52572 19.101 8.06979 15.3366 10.7587 12.1058C10.7298 12.3318 10.7106 12.5626 10.7106 12.7933C10.7106 17.8462 18.2914 22.1539 28.869 23.7404C28.8593 24.1058 28.8593 24.476 28.8593 24.8462C28.8593 34.2645 31.5001 42.2404 35.151 44.9472C19.1091 43.9808 6.52572 34.5722 6.52572 23.1106ZM40.6058 44.9472C44.2567 42.2404 46.8975 34.2645 46.8975 24.8462C46.8975 24.4712 46.8926 24.1058 46.8878 23.7404C57.4606 22.1539 65.0462 17.851 65.0462 12.7933C65.0462 12.5626 65.027 12.3318 64.9981 12.1058C67.687 15.3462 69.2311 19.101 69.2311 23.1106C69.2311 34.5722 56.6477 43.9808 40.6058 44.9472Z" fill="#EFECE6"/>
</g>
<defs>
<clipPath id="clip0_89_188">
<rect width="73.8842" height="48" fill="white" transform="translate(0.936279)"/>
</clipPath>
</defs>
</svg>
