<svg width="134" height="40" viewBox="0 0 134 40" fill="none" xmlns="http://www.w3.org/2000/svg">
<g clip-path="url(#clip0_89_190)">
<path d="M20.8194 0.065918C9.80776 0.065918 0.880615 8.99282 0.880615 20.0045C0.880615 31.0166 9.80776 39.9428 20.8194 39.9428C31.8323 39.9428 40.7585 31.0166 40.7585 20.0045C40.7585 8.99354 31.8323 0.0668703 20.8192 0.0668703L20.8194 0.065918V0.065918ZM29.9632 28.8231C29.6061 29.4088 28.8394 29.5945 28.2537 29.235C23.5723 26.3754 17.6789 25.7278 10.7385 27.3135C10.0697 27.4659 9.403 27.0469 9.25062 26.3778C9.09752 25.7088 9.5149 25.0421 10.1854 24.8897C17.7806 23.1545 24.2956 23.9016 29.5513 27.1135C30.137 27.4731 30.3228 28.2373 29.9632 28.8231V28.8231ZM32.4037 23.394C31.9537 24.1254 30.9966 24.3564 30.2656 23.9064C24.9061 20.6121 16.7363 19.6581 10.397 21.5823C9.5749 21.8307 8.70657 21.3673 8.45704 20.5466C8.20942 19.7245 8.673 18.8578 9.49371 18.6078C16.7349 16.4107 25.737 17.475 31.8918 21.2571C32.6228 21.7071 32.8537 22.6643 32.4037 23.3943V23.394ZM32.6132 17.7407C26.187 13.9238 15.5847 13.5728 9.44919 15.435C8.46395 15.7338 7.42204 15.1776 7.12347 14.1923C6.8249 13.2066 7.38061 12.1654 8.36657 11.8659C15.4097 9.72782 27.118 10.1409 34.5166 14.5331C35.4047 15.059 35.6951 16.2035 35.1689 17.0885C34.6451 17.9747 33.4975 18.2669 32.6142 17.7407H32.6132ZM55.1275 18.4721C51.6847 17.6512 51.0728 17.075 51.0728 15.8643C51.0728 14.7204 52.1489 13.9507 53.7513 13.9507C55.3037 13.9507 56.8418 14.5352 58.4561 15.7385C58.5037 15.775 58.5656 15.7895 58.6251 15.78C58.687 15.7709 58.7394 15.7378 58.7751 15.6881L60.4561 13.3185C60.5251 13.2209 60.5061 13.0864 60.4132 13.0119C58.4918 11.4707 56.3299 10.7214 53.8013 10.7214C50.0847 10.7214 47.487 12.9521 47.487 16.1438C47.487 19.5664 49.7275 20.7783 53.5989 21.7138C56.8918 22.4726 57.4489 23.1083 57.4489 24.2445C57.4489 25.504 56.3251 26.2873 54.5156 26.2873C52.5061 26.2873 50.8656 25.6088 49.0323 24.0231C48.987 23.9826 48.9251 23.9659 48.868 23.9683C48.8061 23.9731 48.7513 24.0016 48.7132 24.0469L46.8275 26.2897C46.7489 26.385 46.7585 26.5231 46.8489 26.604C48.9823 28.5088 51.6061 29.5135 54.4394 29.5135C58.4442 29.5135 61.0323 27.3254 61.0323 23.9373C61.0394 21.0785 59.3275 19.4952 55.1347 18.4752L55.1275 18.4721V18.4721ZM70.0942 15.0769C68.3585 15.0769 66.9347 15.7607 65.7585 17.1619V15.5847C65.7585 15.4602 65.6585 15.3588 65.5347 15.3588H62.4513C62.3275 15.3588 62.2275 15.4602 62.2275 15.5847V33.1088C62.2275 33.2326 62.3275 33.335 62.4513 33.335H65.5347C65.6585 33.335 65.7585 33.2326 65.7585 33.1088V27.5778C66.9347 28.8945 68.3585 29.5397 70.0942 29.5397C73.3204 29.5397 76.587 27.0564 76.587 22.309C76.5918 17.5607 73.3251 15.0766 70.0966 15.0766L70.0942 15.0769ZM73.0013 22.309C73.0013 24.7254 71.5132 26.4135 69.3799 26.4135C67.2728 26.4135 65.6823 24.6493 65.6823 22.309C65.6823 19.9685 67.2728 18.2047 69.3799 18.2047C71.4775 18.2045 73.0013 19.9302 73.0013 22.3088V22.309ZM84.9561 15.0769C80.8013 15.0769 77.5466 18.2759 77.5466 22.3607C77.5466 26.4016 80.7799 29.5659 84.9061 29.5659C89.0751 29.5659 92.3394 26.3778 92.3394 22.309C92.3394 18.254 89.0966 15.0773 84.9561 15.0773V15.0769V15.0769ZM84.9561 26.4373C82.7466 26.4373 81.0799 24.6612 81.0799 22.3078C81.0799 19.9438 82.6894 18.2283 84.9061 18.2283C87.1299 18.2283 88.8061 20.0038 88.8061 22.3595C88.8061 24.7231 87.187 26.4373 84.9561 26.4373V26.4373ZM101.211 15.3588H97.818V11.8907C97.818 11.7664 97.718 11.665 97.5942 11.665H94.5108C94.387 11.665 94.2847 11.7664 94.2847 11.8907V15.3588H92.8037C92.6799 15.3588 92.5799 15.4602 92.5799 15.5847V18.234C92.5799 18.3583 92.6799 18.46 92.8037 18.46H94.2847V25.3159C94.2847 28.085 95.6632 29.4897 98.3847 29.4897C99.4894 29.4897 100.406 29.2612 101.27 28.7707C101.342 28.7326 101.385 28.6564 101.385 28.5754V26.0516C101.385 25.9754 101.344 25.9016 101.278 25.8612C101.211 25.8183 101.128 25.8159 101.058 25.8516C100.466 26.1493 99.8918 26.2873 99.2489 26.2873C98.2608 26.2873 97.818 25.8373 97.818 24.8326V18.4612H101.211C101.335 18.4612 101.435 18.3597 101.435 18.2352V15.5862C101.439 15.4616 101.339 15.3602 101.213 15.3602L101.211 15.3588V15.3588ZM113.03 15.3723V14.9464C113.03 13.6933 113.511 13.1345 114.587 13.1345C115.23 13.1345 115.747 13.2621 116.325 13.455C116.397 13.4773 116.47 13.4662 116.528 13.4235C116.587 13.3809 116.62 13.3126 116.62 13.2402V10.6426C116.62 10.5433 116.558 10.4554 116.461 10.4262C115.851 10.2445 115.07 10.0581 113.899 10.0581C111.054 10.0581 109.547 11.6614 109.547 14.6931V15.3454H108.066C107.942 15.3454 107.839 15.4469 107.839 15.5712V18.234C107.839 18.3583 107.942 18.46 108.066 18.46H109.547V29.0326C109.547 29.1588 109.649 29.2588 109.773 29.2588H112.854C112.98 29.2588 113.08 29.1588 113.08 29.0326V18.4607H115.958L120.368 29.0326C119.868 30.1421 119.375 30.3635 118.704 30.3635C118.161 30.3635 117.587 30.2016 117.004 29.8802C116.949 29.8516 116.882 29.8469 116.825 29.8635C116.766 29.885 116.716 29.9278 116.692 29.985L115.647 32.2778C115.597 32.3874 115.639 32.5135 115.744 32.5707C116.835 33.1612 117.818 33.4135 119.035 33.4135C121.311 33.4135 122.57 32.3516 123.678 29.4993L129.025 15.6809C129.054 15.6114 129.044 15.5328 129.001 15.4712C128.961 15.41 128.892 15.3731 128.818 15.3731H125.608C125.511 15.3731 125.425 15.4343 125.394 15.5245L122.106 24.9135L118.506 15.5183C118.473 15.4309 118.389 15.3731 118.297 15.3731H113.03V15.3723V15.3723ZM106.178 15.3588H103.094C102.97 15.3588 102.868 15.4602 102.868 15.5847V29.0326C102.868 29.1588 102.97 29.2588 103.094 29.2588H106.178C106.301 29.2588 106.404 29.1588 106.404 29.0326V15.5857C106.404 15.4612 106.304 15.3597 106.178 15.3597V15.3588ZM104.654 9.2352C103.432 9.2352 102.442 10.2238 102.442 11.445C102.442 12.6669 103.432 13.6566 104.654 13.6566C105.875 13.6566 106.863 12.6669 106.863 11.445C106.863 10.224 105.873 9.2352 104.654 9.2352ZM131.658 19.6828C130.439 19.6828 129.489 18.7031 129.489 17.5133C129.489 16.3235 130.451 15.3326 131.67 15.3326C132.889 15.3326 133.839 16.3121 133.839 17.5009C133.839 18.6907 132.878 19.6828 131.658 19.6828ZM131.67 15.5483C130.558 15.5483 129.718 16.4316 129.718 17.5133C129.718 18.5945 130.554 19.4659 131.658 19.4659C132.77 19.4659 133.611 18.5833 133.611 17.5009C133.611 16.4197 132.775 15.5483 131.67 15.5483V15.5483ZM132.151 17.724L132.766 18.5831H132.247L131.694 17.795H131.22V18.5831H130.787V16.3059H131.801C132.332 16.3059 132.68 16.5766 132.68 17.0323C132.682 17.4057 132.466 17.6338 132.154 17.724H132.151ZM131.785 16.6966H131.22V17.4169H131.785C132.066 17.4169 132.235 17.279 132.235 17.0564C132.235 16.8221 132.066 16.6966 131.785 16.6966V16.6966Z" fill="#EFECE6"/>
</g>
<defs>
<clipPath id="clip0_89_190">
<rect width="133.095" height="40" fill="white" transform="translate(0.820312)"/>
</clipPath>
</defs>
</svg>
