<svg width="117" height="40" viewBox="0 0 117 40" fill="none" xmlns="http://www.w3.org/2000/svg">
<g clip-path="url(#clip0_89_182)">
<path fill-rule="evenodd" clip-rule="evenodd" d="M41.2835 5.08426C42.1169 5.01607 42.9446 4.98399 43.7682 4.98141C47.5554 4.96955 51.2532 5.58376 54.9865 6.20388C56.9369 6.52784 58.8969 6.8534 60.8844 7.09216C65.9561 7.70005 70.8184 7.71319 75.916 6.55324C76.2866 6.47366 76.5893 6.58699 76.7582 6.82623C76.7777 6.84991 76.7948 6.88073 76.8119 6.91419C76.808 6.90706 76.8041 6.90002 76.8002 6.8931C76.8778 7.0333 76.9152 7.20807 76.9023 7.40705C76.8523 8.27839 76.1713 9.11715 74.4922 10.024C72.5829 11.0609 70.5854 11.3754 68.4993 11.3923C65.0294 11.4208 61.7232 10.5086 58.4148 9.59589C56.9129 9.18155 55.4106 8.76707 53.8923 8.44042C53.8934 8.4753 53.8959 8.5113 53.8984 8.54772C53.911 8.7312 53.9243 8.92497 53.7753 9.0356C51.0819 11.003 48.647 13.0005 47.0161 15.8061C46.961 15.871 46.991 15.9328 47.086 15.9261C47.546 15.9019 47.9909 15.8818 48.4274 15.862C49.3345 15.821 50.2049 15.7816 51.0974 15.711C51.328 15.692 51.3367 15.6349 51.3162 15.4676C51.1999 14.5005 51.4847 13.398 52.344 12.6393C53.2231 11.8585 54.3247 11.7695 55.0541 12.332C55.8846 12.9724 55.811 14.124 55.3568 14.9875C54.8947 15.864 54.1319 16.3321 53.399 16.5598C53.399 16.5598 53.2459 16.5931 53.2681 16.7312C53.2858 16.8646 53.6554 17.1167 53.9649 17.3277C54.1688 17.4668 54.3467 17.5881 54.3806 17.6459C54.4628 17.7846 54.4206 17.9999 54.2688 18.1646C54.1625 18.2843 53.9977 18.3971 53.7859 18.3929C53.6191 18.3896 53.5159 18.3341 53.3095 18.223L53.2919 18.2136C52.8435 17.9732 52.2843 17.5785 51.9114 17.1131C51.7837 16.9558 51.7196 16.9524 51.4017 16.9693C49.9714 17.0512 47.7406 17.2644 46.2294 17.4515C45.8636 17.4966 45.8094 17.5643 45.734 17.6899C45.6802 17.7777 45.6264 17.8657 45.5725 17.9538C43.2101 21.8124 40.6896 25.9292 37.9285 28.7059C34.899 31.7513 32.3806 32.5527 29.7077 32.5735C26.3488 32.5973 23.39 30.5418 23.0507 26.9839C22.8619 25.0125 23.4247 23.2552 24.5512 21.8079C25.551 20.5181 27.2428 19.4466 28.6748 19.1848C29.141 19.1002 29.767 19.1541 30.0256 19.4595C30.4318 19.9274 30.3147 20.4412 29.9091 20.6463C28.8166 21.1988 27.5019 22.1442 26.8516 23.435C26.3235 24.4888 26.2173 25.759 27.0232 26.9686C28.3721 28.9851 32.1317 29.0407 35.6274 25.8249C36.4929 25.0381 37.268 24.282 38.0554 23.3863C39.595 21.6432 40.107 21.0082 42.1536 18.1971C42.1782 18.165 42.1847 18.122 42.174 18.1013C42.1571 18.0654 42.1287 18.0552 42.0691 18.0517C40.703 18.0889 39.5117 18.4923 38.3543 19.3493C38.0207 19.5897 37.5411 19.5559 37.331 19.2392C37.0974 18.8812 37.2646 18.4142 37.6497 18.1512C39.3429 16.9851 41.1785 16.6868 43.0595 16.3811C43.2473 16.3506 43.4356 16.32 43.6242 16.2885C43.6225 16.2885 43.7688 16.2955 43.8875 16.1391C44.2487 15.68 44.5726 15.24 44.895 14.8019C45.3337 14.2058 45.7698 13.6133 46.2936 12.9815C47.2095 11.8693 48.3936 10.8483 49.2977 10.0812C50.3876 9.15307 51.1397 8.75684 51.8544 8.3803C51.9673 8.32082 52.0793 8.26183 52.1915 8.20132C52.408 8.08968 52.1636 7.95539 52.098 7.95539C51.7604 7.89257 51.4217 7.82839 51.0823 7.76406C46.8046 6.95336 42.3966 6.11797 38.1705 7.6671C35.0121 8.83446 33.6281 11.3146 34.294 12.9719C34.7672 14.1473 36.3289 14.3384 37.7906 13.6301C39.005 13.0408 40.1281 12.0919 40.9249 10.8694C41.371 10.1908 42.3096 10.6804 41.8027 11.8589C40.468 14.9652 37.9182 17.4291 34.8122 17.5327C32.1691 17.6177 30.4637 15.6924 30.4692 13.3169C30.4791 8.63181 35.7478 5.54562 41.2835 5.08426ZM54.2634 13.2336C54.1731 13.157 54.0617 13.1175 53.9426 13.1112C53.7441 13.1006 53.5239 13.1825 53.3432 13.3406C52.7671 13.8445 52.5912 14.5603 52.6659 15.0944C52.7039 15.2963 52.7836 15.3351 52.8756 15.3182C53.3343 15.2273 53.8371 14.8532 54.1337 14.4204C54.4051 14.0277 54.532 13.4606 54.2634 13.2336Z" fill="#EFECE6"/>
<path d="M83.1269 24.7878C83.1273 24.7909 83.1273 24.7925 83.1273 24.7951L83.1269 24.7909L83.1265 24.7843L83.1269 24.7878Z" fill="#EFECE6"/>
<path fill-rule="evenodd" clip-rule="evenodd" d="M93.3412 13.2158C93.876 13.2153 94.4054 13.2147 94.864 13.2147C95.0417 13.2147 95.126 13.3171 95.0459 13.4562C94.9125 13.6849 94.0833 14.9544 92.9533 16.6846C90.1239 21.0167 85.4082 28.237 85.0012 29.2413C84.8202 29.686 84.7994 30.0256 84.9829 30.2704C85.4541 30.9016 86.5028 30.5346 87.1609 30.0801C88.5601 29.1248 89.6502 28.0264 90.7079 26.9606C91.1253 26.54 91.5377 26.1245 91.9621 25.7249C92.0473 25.6612 92.195 25.6368 92.296 25.7213C92.3725 25.792 92.4614 25.87 92.5541 25.9513C92.7285 26.1044 92.9166 26.2695 93.062 26.4203C93.1666 26.5313 93.1264 26.6422 93.0721 26.7102C91.6087 28.4806 89.9889 30.1521 88.4407 31.3354C86.0296 33.1833 83.6267 33.6522 82.436 32.469C81.9918 32.0275 81.7493 31.3965 81.7192 30.8649C81.7051 30.5759 81.5556 30.5617 81.4168 30.6959C79.9958 32.0883 77.5262 33.6304 75.2787 32.5332C73.4001 31.6139 72.9659 29.3967 73.3174 27.5255C73.3233 27.4851 73.2832 27.2215 73.0542 27.3788C72.6622 27.6563 72.1513 27.9632 71.5149 28.1969C70.7329 28.4859 70.3663 28.5951 69.6411 28.5868C68.7297 28.5811 67.9078 28.1973 67.328 27.3035C67.0055 26.8202 66.872 26.0839 66.8404 25.5458C66.8369 25.486 66.7577 25.3802 66.6719 25.5168C65.4941 27.2974 64.3769 29.0334 63.2334 30.8104C62.8874 31.3481 62.539 31.8895 62.1858 32.437C62.1075 32.5465 62.0371 32.6172 61.8804 32.6245C61.6566 32.6245 61.428 32.6244 61.1955 32.6243C60.4498 32.6239 59.6645 32.6234 58.8741 32.6271C58.6869 32.6271 58.6019 32.488 58.6995 32.3108C58.9028 31.9227 59.4502 31.0737 60.1596 29.9734C61.3162 28.1796 62.9034 25.7179 64.1316 23.4972C64.6779 22.5135 64.5678 22.0054 64.2274 21.7874C63.8033 21.5153 62.9596 21.9253 62.2468 22.4626C60.6154 23.6864 59.2035 25.4827 58.303 26.6285C58.1307 26.8477 57.9771 27.0431 57.8443 27.2061C57.6879 27.398 57.5344 27.6188 57.356 27.8755C56.9781 28.4193 56.4885 29.1237 55.6232 30.0535C53.6195 32.207 50.9642 33.4443 48.4046 32.5895C47.0063 32.1237 45.9949 31.0098 45.6086 29.6454C45.5317 29.3802 45.3827 29.3069 45.2377 29.4816C44.8236 29.9916 43.9782 30.7432 43.2712 31.2177C43.195 31.2722 43.004 31.3839 42.8393 31.3038C42.6911 31.2383 42.1659 30.504 42.0627 30.2926C41.9861 30.1365 42.0542 29.9683 42.1453 29.8878C43.1558 29.0093 43.7077 28.511 44.1478 27.9634C44.4743 27.5562 44.727 27.0966 45.0221 26.3608C45.6358 24.8283 47.0356 21.9632 49.8268 20.4832C50.8928 19.9182 51.9718 19.5124 53.1681 19.3745C53.684 19.3187 54.1072 19.3837 54.2582 19.7814C54.2798 19.8428 54.3127 19.9308 54.3501 20.031C54.4144 20.2032 54.4922 20.4113 54.5489 20.5811C54.6035 20.7441 54.5637 20.8671 54.3698 20.9411C52.7231 21.5598 51.0729 22.5208 49.9313 24.033C48.6385 25.751 48.2882 27.8195 49.1558 29.0093C49.7873 29.8711 50.8083 30.0219 51.7902 29.7139C53.2805 29.2485 54.5488 27.8725 55.2012 26.3474C55.9115 24.6818 56.0269 22.71 55.5027 20.976C55.4164 20.6776 55.4927 20.4452 55.69 20.2846C56.013 20.0266 56.4351 19.814 56.6653 19.6981C56.7177 19.6717 56.7602 19.6503 56.7893 19.6345C57.1288 19.4466 57.5325 19.5843 57.7245 19.8621C58.2671 20.6603 58.5622 21.785 58.5915 22.9458C58.6252 23.191 58.7309 23.1969 58.8518 23.0705C59.0949 22.8136 59.3339 22.5526 59.5718 22.2927C60.2848 21.5142 60.9886 20.7455 61.7657 20.1276C62.7113 19.381 63.9246 18.7715 65.0598 18.7979C66.523 18.8303 67.2552 19.8159 67.2044 21.5681C67.1993 21.7924 67.3634 21.7769 67.4701 21.6253C67.9079 21.0083 68.1963 20.7007 68.7026 20.2848C69.7131 19.4587 70.75 19.0862 71.8314 19.1613C73.1627 19.2579 74.2266 20.4651 74.0088 21.8338C73.8683 22.7159 73.3861 23.493 72.5657 23.8956C71.8704 24.2316 71.0583 24.1743 70.4907 23.6708C70.026 23.248 69.8751 22.6449 69.9977 22.0383C70.0235 21.9121 69.8591 21.7948 69.7218 21.9352C68.4209 23.2759 68.3251 25.0101 69.1754 25.7905C70.115 26.6519 71.5188 26.0749 72.5445 25.4133C73.6365 24.7066 74.5853 23.8548 75.5197 23.0159C76.1927 22.4117 76.8583 21.8141 77.5645 21.2824C78.6837 20.4413 79.9566 19.6945 81.385 19.5046C82.1762 19.4006 82.9374 19.4572 83.716 19.7701C84.7187 20.1713 85.3623 21.0021 85.4628 21.7358C85.4021 21.2881 85.1399 20.8049 84.7183 20.4069C85.155 20.7839 85.6062 21.2645 85.796 21.4871C85.8368 21.5377 85.8757 21.5872 85.914 21.6381C86.2423 21.1368 86.8557 20.2163 87.5549 19.167C89.0997 16.8487 91.0636 13.9016 91.2982 13.4562C91.4066 13.2448 91.5257 13.2169 91.7559 13.2169C92.2437 13.2169 92.7953 13.2163 93.3412 13.2158ZM82.9001 21.843C82.699 21.7472 82.4782 21.7023 82.2423 21.7043C81.2204 21.7132 79.9165 22.6045 78.7155 24.0683C77.5033 25.5429 76.8487 27.0435 76.8246 28.5049C76.8154 29.0249 77.0155 29.6664 77.4788 29.9047C78.522 30.4496 79.7837 29.6391 80.6922 28.8946C81.2946 28.4052 81.7922 27.896 82.2334 27.2435C82.303 27.1412 82.3698 27.0439 82.4345 26.9498C82.816 26.3945 83.1207 25.9511 83.4484 25.2561L83.4443 25.2642C83.375 25.4049 83.3094 25.5379 83.2432 25.6631C83.2002 25.3803 83.1473 25.0028 83.1277 24.7994C83.1286 24.8066 83.1299 24.8137 83.1316 24.8205C83.1335 24.8283 83.136 24.836 83.1391 24.8433C83.1194 24.7801 83.122 24.7148 83.1592 24.6376C83.6555 23.639 84.0095 22.3671 82.9001 21.843Z" fill="#EFECE6"/>
<path fill-rule="evenodd" clip-rule="evenodd" d="M0.873047 20.0003C0.873047 8.95278 26.8568 0 58.9101 0C90.9605 0 116.943 8.95278 116.943 20.0003C116.943 31.0458 90.9605 40 58.9101 40C26.8566 40 0.873047 31.0458 0.873047 20.0003ZM114.905 20C114.905 9.9093 89.8373 1.73233 58.9101 1.73233C27.9828 1.73233 2.9139 9.9093 2.9139 20C2.9139 30.0907 27.9828 38.2694 58.9101 38.2694C89.8373 38.2694 114.905 30.0907 114.905 20Z" fill="#EFECE6"/>
</g>
<defs>
<clipPath id="clip0_89_182">
<rect width="116.07" height="40" fill="white" transform="translate(0.873047)"/>
</clipPath>
</defs>
</svg>
