<svg width="62" height="64" viewBox="0 0 62 64" fill="none" xmlns="http://www.w3.org/2000/svg">
<g clip-path="url(#clip0_89_186)">
<path fill-rule="evenodd" clip-rule="evenodd" d="M33.3393 9.60749C32.9141 9.64942 32.8507 9.94701 32.8481 10.0715C32.8089 16.5962 32.7956 23.2993 32.7823 30.0565C32.7659 38.3546 32.7493 46.7352 32.6843 54.9669C32.7551 55.3151 33.1828 55.0124 33.5763 54.734C33.7169 54.6346 33.853 54.5382 33.9671 54.4757C39.4814 51.4443 56.6806 34.787 46.7943 28.8211C54.3645 23.871 53.0154 19.1468 49.66 16.567C43.3798 11.7358 36.2984 10.1921 34.3289 9.76279C34.1227 9.71784 33.9725 9.68509 33.8852 9.66208C33.6548 9.60138 33.4811 9.59352 33.3393 9.60749ZM37.9517 15.5845C38.0591 15.5259 42.5062 17.1746 44.9385 18.8322C47.7271 20.7326 46.783 22.559 45.1568 23.6629C45.0041 23.767 44.7145 23.9703 44.3352 24.2367C42.5203 25.5111 38.6519 28.2276 37.8971 28.4117C37.877 27.6545 37.8731 19.1163 37.9517 15.5845ZM42.0182 32.2053C42.6274 32.2241 43.2062 32.4189 43.6285 32.8604C44.0057 33.221 45.6688 35.0138 42.1274 40.1473C40.8086 42.4757 38.0434 45.3959 37.7334 45.6876C37.7148 45.6928 37.7016 45.6813 37.6896 45.6707C37.6772 45.66 37.6661 45.6502 37.6515 45.6603C37.6615 45.0787 37.6626 43.7186 37.664 42.0975C37.6664 39.067 37.6696 35.1243 37.7334 33.6518C37.7504 33.6429 37.7831 33.6242 37.8297 33.5975C38.3193 33.317 40.3495 32.154 42.0182 32.2053Z" fill="#EFECE6"/>
<path d="M9.8384 17.8812C10.227 17.4934 14.0881 15.035 14.5414 14.8411C14.054 21.3388 15.6182 30.4408 17.2549 33.3848C17.2783 33.3497 17.3241 33.2815 17.3851 33.1905C17.6611 32.779 18.2483 31.9035 18.4793 31.5395C17.6531 27.2539 16.8592 14.4856 17.4409 13.3214C17.8933 12.8682 21.0478 11.6027 22.3412 11.3442C21.8688 17.6847 22.6845 33.0521 25.0748 38.8756C25.297 36.9632 25.1182 24.8017 25.003 16.9682C24.9507 13.4109 24.9115 10.7462 24.929 10.339C25.6041 9.98875 29.0162 9.54422 30.0564 9.56867C29.7979 11.0219 30.0337 46.6824 30.1297 54.9207C30.1393 55.7626 27.7385 53.719 26.1752 51.5557C22.6486 46.6798 20.1413 38.6118 19.7535 37.3184C19.5559 37.5442 18.943 38.382 18.326 39.2254C18.065 39.5822 17.8032 39.94 17.5719 40.2528C17.5519 40.2812 17.5323 40.309 17.5131 40.3364C16.4466 41.8526 16.3775 41.9507 15.4296 40.314C14.9265 39.5393 14.4619 38.6834 14.034 37.7708C10.6497 30.5543 9.73098 21.3082 9.8384 17.8812Z" fill="#EFECE6"/>
<path fill-rule="evenodd" clip-rule="evenodd" d="M27.5678 0.578481C23.0792 1.24655 16.1089 2.28399 14.9449 2.86567C14.7638 3.22821 14.4883 3.95873 14.2227 4.66278C13.9336 5.42917 13.6563 6.16424 13.5257 6.35906C13.2233 6.42411 12.6576 6.53712 11.9971 6.66905C10.3435 6.99934 8.09637 7.4482 7.90353 7.55991C7.75244 8.01405 6.766 9.95288 6.53893 10.1799C6.29254 10.2415 5.80166 10.3441 5.20635 10.4684C3.60497 10.803 1.24798 11.2955 0.862172 11.5718C0.559994 13.3884 -0.593697 31.5654 6.9756 43.449C14.5449 55.3326 27.7835 63.2427 31.2656 63.9999H31.2928C34.7749 63.2427 47.9862 55.3326 55.5555 43.449C63.1239 31.5645 62.0002 13.3884 61.6962 11.5718C61.3103 11.2959 58.9582 10.8043 57.3574 10.4697C56.7594 10.3448 56.2662 10.2417 56.0195 10.1799C55.7924 9.95288 54.8068 8.01405 54.6549 7.55991C54.4607 7.44703 52.169 6.98947 50.5106 6.65836C49.8723 6.53092 49.3276 6.42216 49.0327 6.35906C48.9024 6.1647 48.6264 5.43275 48.3381 4.66834C48.072 3.96258 47.7955 3.22916 47.6135 2.86567C46.4592 2.28883 39.5498 1.26135 35.0487 0.591988C33.1711 0.312781 31.7126 0.0958855 31.2656 0C30.8302 0.0929197 29.4074 0.304683 27.5678 0.578481ZM31.2656 4.63966C31.6421 4.72023 32.8587 4.9043 34.4303 5.14208C38.2757 5.72388 44.2465 6.62726 45.2391 7.12323C45.394 7.43419 45.6281 8.05937 45.8531 8.66046C46.0964 9.31024 46.3293 9.93204 46.44 10.0981C46.7163 10.1572 47.2522 10.2619 47.8702 10.3825C49.2776 10.6572 51.1105 11.015 51.2707 11.1079C51.3999 11.4956 52.2222 13.1792 52.4169 13.3731C52.6333 13.4272 53.0714 13.5172 53.6005 13.6259C54.9697 13.9071 56.9486 14.3136 57.2749 14.5467C57.5343 16.0995 58.5046 31.6272 52.0348 41.7842C45.5651 51.9421 34.2692 58.714 31.2928 59.3603H31.2656C28.2892 58.714 16.9933 51.9412 10.5236 41.7842C4.05469 31.6272 5.02498 16.0995 5.28349 14.5467C5.61043 14.313 7.58923 13.9067 8.9582 13.6257C9.48715 13.5171 9.9251 13.4272 10.1415 13.3731C10.3362 13.1792 11.1585 11.4956 11.2877 11.1079C11.4494 11.0142 13.2997 10.6509 14.7038 10.3753C15.3027 10.2577 15.8204 10.156 16.0912 10.0981C16.2036 9.93003 16.448 9.29537 16.7014 8.63712C16.93 8.04326 17.166 7.43016 17.3193 7.12323C18.3199 6.62262 24.346 5.71004 28.1787 5.12962C29.7152 4.89693 30.8992 4.71763 31.2656 4.63966Z" fill="#EFECE6"/>
</g>
<defs>
<clipPath id="clip0_89_186">
<rect width="61.3183" height="64" fill="white" transform="translate(0.61792)"/>
</clipPath>
</defs>
</svg>
